<?xml version="1.0" encoding="UTF-8" standalone="no"?>
<!DOCTYPE svg PUBLIC "-//W3C//DTD SVG 1.1//EN" "http://www.w3.org/Graphics/SVG/1.1/DTD/svg11.dtd">
<svg width="100%" height="100%" viewBox="0 0 3021 1313" version="1.1" xmlns="http://www.w3.org/2000/svg" xmlns:xlink="http://www.w3.org/1999/xlink" xml:space="preserve" xmlns:serif="http://www.serif.com/" style="fill-rule:evenodd;clip-rule:evenodd;stroke-linejoin:round;stroke-miterlimit:2;">
    <g transform="matrix(4.16667,0,0,4.16667,-130.388,45.2979)">
        <g>
            <g transform="matrix(1,0,0,1,0,2.4)">
                <path d="M723.4,75.041C723.4,33.619 689.823,0.041 648.402,0.041C606.979,0.041 573.4,33.619 573.4,75.041C573.4,116.463 606.979,150.041 648.402,150.041C689.823,150.041 723.4,116.463 723.4,75.041Z" style="fill:rgb(48,127,175);fill-rule:nonzero;"/>
            </g>
            <g transform="matrix(1,0,0,1,0,2.4)">
                <path d="M618.098,96.547L619.543,96.547C622.736,96.547 623.496,96.167 624.865,93.354L631.556,79.82C632.393,78.071 633.001,76.778 633.001,74.877C633.001,72.292 632.164,70.848 631.1,68.643L624.789,55.793C623.192,52.523 622.508,52.6 619.011,52.6L618.098,52.6L618.098,96.547ZM610.494,52.6L607.682,52.6C605.172,52.6 603.043,51.687 603.043,48.798C603.043,46.06 605.096,44.996 607.453,44.996L620.15,44.996C626.081,44.996 629.047,47.429 631.632,52.6L638.323,65.981C639.844,69.099 640.604,71.304 640.604,74.802C640.604,77.843 639.768,80.428 638.399,83.165L631.48,97.003C628.818,102.401 625.397,104.15 619.467,104.15L606.845,104.15C604.868,104.15 603.043,103.086 603.043,100.349C603.043,97.612 604.868,96.547 606.845,96.547L610.494,96.547L610.494,52.6Z" style="fill:rgb(231,237,238);fill-rule:nonzero;"/>
            </g>
            <g transform="matrix(1,0,0,1,0,2.4)">
                <path d="M687.816,48.873C687.816,46.44 688.881,45.072 691.618,45.072C694.354,45.072 695.419,46.44 695.419,48.873L695.419,104.227L685.383,104.227L665.538,58.606L665.538,58.53L665.386,58.53L665.386,100.349C665.386,102.782 664.321,104.15 661.584,104.15C658.847,104.15 657.782,102.782 657.782,100.349L657.782,44.996L667.819,44.996L687.664,91.149L687.588,91.149L687.74,91.149L687.816,48.873Z" style="fill:rgb(231,237,238);fill-rule:nonzero;"/>
            </g>
            <g transform="matrix(1,0,0,1,0,2.4)">
                <path d="M169.55,245.486C175.72,245.486 181.415,248.808 181.415,257.351C181.415,265.894 175.72,269.216 169.55,269.216L64.186,269.216L64.186,84.594L169.55,84.594C175.72,84.594 181.415,87.916 181.415,96.459C181.415,105.001 175.72,108.324 169.55,108.324L87.917,108.324L87.917,165.04L122.801,165.04C128.97,165.04 134.666,168.362 134.666,176.905C134.666,185.448 128.97,188.77 122.801,188.77L87.917,188.77L87.917,245.486L169.55,245.486Z" style="fill:white;fill-rule:nonzero;"/>
            </g>
            <g transform="matrix(1,0,0,1,0,2.4)">
                <path d="M280.126,176.905L237.886,104.29C236.225,101.679 235.038,99.069 235.038,95.747C235.038,89.577 240.733,84.594 246.666,84.594C254.497,84.594 257.107,90.526 260.43,96.222L293.652,152.937L326.875,96.222C330.197,90.526 332.808,84.594 340.639,84.594C346.571,84.594 352.267,89.577 352.267,95.747C352.267,99.069 351.08,101.679 349.419,104.29L307.179,176.905L349.419,249.52C351.08,252.13 352.267,254.741 352.267,258.063C352.267,264.233 346.571,269.216 340.639,269.216C332.808,269.216 330.197,263.284 326.875,257.588L293.652,200.873L260.43,257.588C257.107,263.284 254.497,269.216 246.666,269.216C240.733,269.216 235.038,264.233 235.038,258.063C235.038,254.741 236.225,252.13 237.886,249.52L280.126,176.905Z" style="fill:white;fill-rule:nonzero;"/>
            </g>
            <g transform="matrix(1,0,0,1,0,2.4)">
                <path d="M429.62,108.324L429.62,116.867C429.62,124.46 426.298,128.732 417.755,128.732C409.212,128.732 405.89,124.46 405.89,116.867L405.89,84.594L523.117,84.594L523.117,116.867C523.117,124.46 519.796,128.732 511.253,128.732C502.71,128.732 499.388,124.46 499.388,116.867L499.388,108.324L476.369,108.324L476.369,257.351C476.369,264.945 473.047,269.216 464.504,269.216C455.961,269.216 452.639,264.945 452.639,257.351L452.639,108.324L429.62,108.324Z" style="fill:white;fill-rule:nonzero;"/>
            </g>
        </g>
    </g>
</svg>
