<?xml version="1.0" encoding="UTF-8" standalone="no"?>
<!DOCTYPE svg PUBLIC "-//W3C//DTD SVG 1.1//EN" "http://www.w3.org/Graphics/SVG/1.1/DTD/svg11.dtd">
<svg width="100%" height="100%" viewBox="0 0 400 400" version="1.1" xmlns="http://www.w3.org/2000/svg" xmlns:xlink="http://www.w3.org/1999/xlink" xml:space="preserve" xmlns:serif="http://www.serif.com/" style="fill-rule:evenodd;clip-rule:evenodd;stroke-linejoin:round;stroke-miterlimit:2;">
    <g transform="matrix(4.16667,0,0,4.16667,-22.9167,8.97708)">
        <g transform="matrix(1,0,0,1,4.76837e-07,0.000499725)">
            <path d="M81.292,18.045C88.412,25.165 92.801,34.975 92.801,45.845C92.801,56.715 88.412,66.525 81.292,73.645C74.162,80.765 64.352,85.165 53.481,85.165C47.042,85.165 40.981,83.605 35.622,80.866C40.292,71.255 42.461,61.415 43.332,51.675C50.881,53.345 60.542,53.375 67.511,51.675C67.011,48.485 66.431,44.265 65.732,40.925C60.971,41.435 47.682,41.795 40.782,37.435C49.502,33.805 64.471,34.245 73.622,40.195C80.761,36.375 81.612,35.985 86.412,32.935C56.042,9.615 29.231,25.885 21.131,32.385L30.502,50.185C30.502,50.185 21.552,54.235 15.752,56.905C14.731,53.395 14.171,49.685 14.171,45.845C14.171,34.975 18.562,25.165 25.682,18.045C32.812,10.925 42.622,6.525 53.481,6.525C64.352,6.525 74.162,10.925 81.292,18.045Z" style="fill:white;fill-rule:nonzero;"/>
        </g>
        <g transform="matrix(1,0,0,1,0.0139985,0)">
            <path d="M92.801,45.845C92.801,34.975 88.412,25.165 81.292,18.045C74.162,10.925 64.352,6.525 53.481,6.525C42.622,6.525 32.812,10.925 25.682,18.045C18.562,25.165 14.171,34.975 14.171,45.845C14.171,49.685 14.731,53.395 15.752,56.905C21.552,54.235 30.502,50.185 30.502,50.185L21.131,32.385C29.231,25.885 56.042,9.615 86.412,32.935C81.612,35.985 80.761,36.375 73.622,40.195C64.471,34.245 49.502,33.805 40.782,37.435C47.682,41.795 60.971,41.435 65.732,40.925C66.431,44.265 67.011,48.485 67.511,51.675C60.542,53.375 50.881,53.345 43.332,51.675C42.461,61.415 40.292,71.255 35.622,80.866C40.981,83.605 47.042,85.165 53.481,85.165C64.352,85.165 74.162,80.765 81.292,73.645C88.412,66.525 92.801,56.715 92.801,45.845ZM53.481,0.745C78.402,0.745 98.582,20.935 98.591,45.845C98.582,70.755 78.402,90.946 53.481,90.946C28.572,90.946 8.392,70.755 8.381,45.845C8.392,20.935 28.572,0.745 53.481,0.745Z" style="fill:rgb(3,4,4);fill-rule:nonzero;"/>
        </g>
    </g>
</svg>
