<?xml version="1.0" encoding="UTF-8" standalone="no"?>
<!DOCTYPE svg PUBLIC "-//W3C//DTD SVG 1.1//EN" "http://www.w3.org/Graphics/SVG/1.1/DTD/svg11.dtd">
<svg width="100%" height="100%" viewBox="0 0 1250 417" version="1.1" xmlns="http://www.w3.org/2000/svg" xmlns:xlink="http://www.w3.org/1999/xlink" xml:space="preserve" xmlns:serif="http://www.serif.com/" style="fill-rule:evenodd;clip-rule:evenodd;stroke-linejoin:round;stroke-miterlimit:2;">
    <g transform="matrix(4.16667,0,0,4.16667,402.083,-45.8333)">
        <g transform="matrix(1,0,0,1,-94.8571,15.1545)">
            <path d="M92.801,45.845C92.801,34.975 88.412,25.165 81.292,18.045C74.162,10.925 64.352,6.525 53.481,6.525C42.622,6.525 32.812,10.925 25.682,18.045C18.562,25.165 14.171,34.975 14.171,45.845C14.171,49.685 14.731,53.395 15.752,56.905C21.552,54.235 30.502,50.185 30.502,50.185L21.131,32.385C29.231,25.885 56.042,9.615 86.412,32.935C81.612,35.985 80.761,36.375 73.622,40.195C64.471,34.245 49.502,33.805 40.782,37.435C47.682,41.795 60.971,41.435 65.732,40.925C66.431,44.265 67.011,48.485 67.511,51.675C60.542,53.375 50.881,53.345 43.332,51.675C42.461,61.415 40.292,71.255 35.622,80.866C40.981,83.605 47.042,85.165 53.481,85.165C64.352,85.165 74.162,80.765 81.292,73.645C88.412,66.525 92.801,56.715 92.801,45.845ZM53.481,0.745C78.402,0.745 98.582,20.935 98.591,45.845C98.582,70.755 78.402,90.946 53.481,90.946C28.572,90.946 8.392,70.755 8.381,45.845C8.392,20.935 28.572,0.745 53.481,0.745Z" style="fill:white;fill-rule:nonzero;"/>
        </g>
        <g transform="matrix(1.565,0,0,1.67605,16.9089,-127.393)">
            <path d="M2.121,104.791L2.121,111.362L11.283,111.362L11.283,113.153L2.121,113.153L2.121,121.807L0,121.807L0,102.999L11.531,102.999L11.531,104.791L2.121,104.791Z" style="fill:white;fill-rule:nonzero;"/>
            <path d="M21.217,104.598C18.241,104.598 16.501,104.928 15.995,105.59C15.491,106.251 15.237,108.52 15.237,112.395C15.237,116.282 15.491,118.556 15.995,119.218C16.501,119.877 18.241,120.209 21.217,120.209C24.203,120.209 25.949,119.877 26.453,119.218C26.959,118.556 27.211,116.282 27.211,112.395L27.211,111.17L27.197,109.392C27.197,107.317 26.848,105.997 26.151,105.439C25.453,104.877 23.808,104.598 21.217,104.598ZM21.231,102.806C24.786,102.806 27.009,103.325 27.9,104.364C28.792,105.401 29.237,107.996 29.237,112.148C29.237,116.622 28.81,119.383 27.955,120.429C27.102,121.475 24.86,122 21.231,122C17.622,122 15.382,121.482 14.514,120.442C13.647,119.405 13.211,116.723 13.211,112.395L13.211,111.074L13.241,109.297C13.241,106.797 13.803,105.092 14.929,104.176C16.053,103.263 18.154,102.806 21.231,102.806Z" style="fill:white;fill-rule:nonzero;"/>
            <path d="M39.087,104.598C36.111,104.598 34.371,104.928 33.866,105.59C33.361,106.251 33.107,108.52 33.107,112.395C33.107,116.282 33.361,118.556 33.866,119.218C34.371,119.877 36.111,120.209 39.087,120.209C42.073,120.209 43.819,119.877 44.324,119.218C44.829,118.556 45.081,116.282 45.081,112.395L45.081,111.17L45.067,109.392C45.067,107.317 44.718,105.997 44.021,105.439C43.322,104.877 41.678,104.598 39.087,104.598ZM39.101,102.806C42.656,102.806 44.878,103.325 45.771,104.364C46.662,105.401 47.107,107.996 47.107,112.148C47.107,116.622 46.679,119.383 45.825,120.429C44.972,121.475 42.73,122 39.101,122C35.492,122 33.252,121.482 32.384,120.442C31.517,119.405 31.082,116.723 31.082,112.395L31.082,111.074L31.111,109.297C31.111,106.797 31.673,105.092 32.799,104.176C33.923,103.263 36.024,102.806 39.101,102.806Z" style="fill:white;fill-rule:nonzero;"/>
            <path d="M70.172,102.999L70.172,121.807L68.05,121.807L68.05,106.76L68.05,105.63L68.065,105.066L68.078,104.5L68.024,104.5L67.859,104.94C67.775,105.162 67.719,105.305 67.694,105.369L67.335,106.251L60.927,121.807L58.805,121.807L52.384,106.43L52.013,105.561L51.847,105.121C51.801,105.02 51.747,104.877 51.682,104.694L51.627,104.694L51.64,105.204L51.655,105.727L51.655,121.807L49.533,121.807L49.533,102.999L53.211,102.999L58.227,115.166L59.024,117.136L59.426,118.114L59.813,119.092L59.867,119.092L60.252,118.114C60.446,117.644 60.573,117.319 60.637,117.136L61.452,115.18L66.439,102.999L70.172,102.999Z" style="fill:white;fill-rule:nonzero;"/>
            <path d="M84.682,116.226L80.506,104.735L76.388,116.226L84.682,116.226ZM85.302,117.825L75.781,117.825L74.335,121.807L72.088,121.807L78.977,102.999L81.954,102.999L88.98,121.807L86.761,121.807L85.302,117.825Z" style="fill:white;fill-rule:nonzero;"/>
            <path d="M106.977,102.999L106.977,121.807L103.49,121.807L95.609,109.006L94.327,106.898L93.693,105.852L93.059,104.805L93.005,104.805L93.018,105.507L93.031,106.224L93.031,121.807L90.911,121.807L90.911,102.999L94.382,102.999L101.259,114.215L103.05,117.164L103.945,118.624L104.826,120.099L104.882,120.099L104.869,119.395L104.854,118.68L104.854,117.273L104.854,102.999L106.977,102.999Z" style="fill:white;fill-rule:nonzero;"/>
        </g>
    </g>
</svg>
